# xmcd CD database file
#
# Track frame offsets:
#	150
#	19925
#	42875
#	60702
#	79027
#	101520
#	122792
#	140370
#	153547
#	180140
#	206627
#	222057
#	233735
#
# Disc length: 3279 seconds
#
# Revision: 2
# Processed by: cddbd v1.4PL0 Copyright (c) Steve Scherf et al.
# Submitted via: CDex 1.40Beta9
#
DISCID=a70ccd0d
DTITLE=Parliament - Osmium
DYEAR=1970
DGENRE=Funk
TTITLE0=I Call My Baby Pussycat
TTITLE1=Put Love In Your Life
TTITLE2=Little Ole Country Boy
TTITLE3=Moonshine Heather
TTITLE4=Oh Lord, Why Lord - Prayer
TTITLE5=My Automobile
TTITLE6=Nothing Before Me But Thang
TTITLE7=Funky Woman
TTITLE8=Livin' The Life
TTITLE9=The Silent Boatman
TTITLE10=Breakdown (bonus track)
TTITLE11=Red Hot Mama (bonus track)
TTITLE12=Come In Out Of The Rain (bonus track)
EXTD=YEAR: 1970 ID3G: 5
EXTT0=
EXTT1=
EXTT2=
EXTT3=
EXTT4=
EXTT5=
EXTT6=
EXTT7=
EXTT8=
EXTT9=
EXTT10=
EXTT11=
EXTT12=
PLAYORDER=
